<?xml version="1.0" encoding="UTF-8" standalone="no"?>
<svg
   width="501.86914"
   zoomAndPan="magnify"
   viewBox="0 0 376.40186 377.10277"
   height="502.80371"
   preserveAspectRatio="xMidYMid"
   version="1.0"
   id="svg119"
   sodipodi:docname="2.svg"
   inkscape:version="1.4 (e7c3feb1, 2024-10-09)"
   xmlns:inkscape="http://www.inkscape.org/namespaces/inkscape"
   xmlns:sodipodi="http://sodipodi.sourceforge.net/DTD/sodipodi-0.dtd"
   xmlns="http://www.w3.org/2000/svg"
   xmlns:svg="http://www.w3.org/2000/svg">
  <sodipodi:namedview
     id="namedview119"
     pagecolor="#ffffff"
     bordercolor="#666666"
     borderopacity="1.0"
     inkscape:showpageshadow="2"
     inkscape:pageopacity="0.0"
     inkscape:pagecheckerboard="0"
     inkscape:deskcolor="#d1d1d1"
     inkscape:zoom="1.07"
     inkscape:cx="251.86916"
     inkscape:cy="250.46729"
     inkscape:window-width="1664"
     inkscape:window-height="1153"
     inkscape:window-x="3084"
     inkscape:window-y="143"
     inkscape:window-maximized="0"
     inkscape:current-layer="svg119" />
  <defs
     id="defs1" />
  <g
     id="g121"
     transform="translate(1.7523232,0.35046694)">
    <rect
       x="-1.7523232"
       width="376.40186"
       fill="#2b2b2b"
       y="-0.35046694"
       height="377.10278"
       fill-opacity="1"
       id="rect2"
       style="stroke-width:0.837227" />
    <g
       fill="#e4e2dd"
       fill-opacity="1"
       id="g20"
       transform="matrix(2.0844241,0,0,1.9701568,-202.0326,-169.80988)">
      <g
         transform="translate(105.63703,269.21917)"
         id="g19">
        <g
           id="g18">
          <path
             d="m 0.734375,0 v -6.375 h 2.09375 c 0.6875,0 1.203125,0.148438 1.546875,0.4375 0.351562,0.28125 0.53125,0.703125 0.53125,1.265625 0,0.292969 -0.085938,0.554687 -0.25,0.78125 -0.167969,0.230469 -0.398438,0.40625 -0.6875,0.53125 0.34375,0.105469 0.613281,0.292969 0.8125,0.5625 0.195312,0.261719 0.296875,0.578125 0.296875,0.953125 0,0.574219 -0.1875,1.027344 -0.5625,1.359375 C 4.148438,-0.160156 3.628906,0 2.953125,0 Z m 0.84375,-2.984375 V -0.6875 H 2.96875 c 0.394531,0 0.703125,-0.097656 0.921875,-0.296875 0.226563,-0.207031 0.34375,-0.488281 0.34375,-0.84375 0,-0.769531 -0.417969,-1.15625 -1.25,-1.15625 z m 0,-0.671875 H 2.84375 c 0.375,0 0.671875,-0.085938 0.890625,-0.265625 0.21875,-0.1875 0.328125,-0.441406 0.328125,-0.765625 0,-0.34375 -0.105469,-0.59375 -0.3125,-0.75 -0.199219,-0.164062 -0.507812,-0.25 -0.921875,-0.25 h -1.25 z m 0,0"
             id="path17" />
        </g>
      </g>
    </g>
    <g
       fill="#e4e2dd"
       fill-opacity="1"
       id="g23"
       transform="matrix(2.0844241,0,0,1.9701568,-202.0326,-169.80988)">
      <g
         transform="translate(111.89179,269.21917)"
         id="g22">
        <g
           id="g21">
          <path
             d="M 2.578125,0.09375 C 1.929688,0.09375 1.40625,-0.113281 1,-0.53125 0.601562,-0.957031 0.40625,-1.523438 0.40625,-2.234375 v -0.15625 c 0,-0.46875 0.085938,-0.882813 0.265625,-1.25 0.1875,-0.375 0.4375,-0.664063 0.75,-0.875 0.320313,-0.207031 0.675781,-0.3125 1.0625,-0.3125 0.613281,0 1.085937,0.203125 1.421875,0.609375 0.34375,0.40625 0.515625,0.992188 0.515625,1.75 v 0.328125 H 1.21875 C 1.226562,-1.671875 1.363281,-1.289062 1.625,-1 c 0.257812,0.28125 0.59375,0.421875 1,0.421875 0.28125,0 0.519531,-0.054687 0.71875,-0.171875 0.195312,-0.113281 0.375,-0.269531 0.53125,-0.46875 l 0.484375,0.390625 C 3.960938,-0.210938 3.367188,0.09375 2.578125,0.09375 Z m -0.09375,-4.25 c -0.335937,0 -0.609375,0.121094 -0.828125,0.359375 -0.21875,0.230469 -0.355469,0.5625 -0.40625,1 h 2.375 v -0.0625 C 3.59375,-3.273438 3.476562,-3.59375 3.28125,-3.8125 3.082031,-4.039062 2.816406,-4.15625 2.484375,-4.15625 Z m 0,0"
             id="path20" />
        </g>
      </g>
    </g>
    <g
       fill="#e4e2dd"
       fill-opacity="1"
       id="g26"
       transform="matrix(2.0844241,0,0,1.9701568,-202.0326,-169.80988)">
      <g
         transform="translate(117.31468,269.21917)"
         id="g25">
        <g
           id="g24">
          <path
             d="m 2.15625,-1.1875 1.109375,-3.546875 h 0.875 l -1.90625,5.46875 C 1.929688,1.515625 1.460938,1.90625 0.828125,1.90625 H 0.671875 L 0.375,1.84375 V 1.1875 l 0.21875,0.015625 c 0.269531,0 0.476562,-0.058594 0.625,-0.171875 C 1.375,0.925781 1.503906,0.722656 1.609375,0.421875 l 0.171875,-0.46875 -1.6875,-4.6875 h 0.890625 z m 0,0"
             id="path23" />
        </g>
      </g>
    </g>
    <g
       fill="#e4e2dd"
       fill-opacity="1"
       id="g29"
       transform="matrix(2.0844241,0,0,1.9701568,-202.0326,-169.80988)">
      <g
         transform="translate(122.22969,269.21917)"
         id="g28">
        <g
           id="g27">
          <path
             d="m 0.40625,-2.40625 c 0,-0.46875 0.085938,-0.882812 0.265625,-1.25 0.1875,-0.375 0.441406,-0.660156 0.765625,-0.859375 0.320312,-0.207031 0.691406,-0.3125 1.109375,-0.3125 0.644531,0 1.164063,0.226563 1.5625,0.671875 0.40625,0.449219 0.609375,1.042969 0.609375,1.78125 v 0.0625 c 0,0.460938 -0.089844,0.871094 -0.265625,1.234375 C 4.273438,-0.710938 4.019531,-0.425781 3.6875,-0.21875 3.363281,-0.0078125 2.988281,0.09375 2.5625,0.09375 1.914062,0.09375 1.394531,-0.128906 1,-0.578125 0.601562,-1.023438 0.40625,-1.617188 0.40625,-2.359375 Z m 0.8125,0.09375 c 0,0.523438 0.117188,0.945312 0.359375,1.265625 0.238281,0.3125 0.566406,0.46875 0.984375,0.46875 0.40625,0 0.726562,-0.160156 0.96875,-0.484375 0.25,-0.320312 0.375,-0.769531 0.375,-1.34375 0,-0.519531 -0.125,-0.941406 -0.375,-1.265625 -0.25,-0.320313 -0.578125,-0.484375 -0.984375,-0.484375 -0.398437,0 -0.71875,0.164062 -0.96875,0.484375 C 1.335938,-3.359375 1.21875,-2.90625 1.21875,-2.3125 Z m 0,0"
             id="path26" />
        </g>
      </g>
    </g>
    <g
       fill="#e4e2dd"
       fill-opacity="1"
       id="g32"
       transform="matrix(2.0844241,0,0,1.9701568,-202.0326,-169.80988)">
      <g
         transform="translate(128.01597,269.21917)"
         id="g31">
        <g
           id="g30">
          <path
             d="m 1.375,-4.734375 0.03125,0.59375 c 0.363281,-0.457031 0.835938,-0.6875 1.421875,-0.6875 1,0 1.503906,0.570313 1.515625,1.703125 V 0 h -0.8125 v -3.140625 c 0,-0.332031 -0.078125,-0.582031 -0.234375,-0.75 -0.15625,-0.164063 -0.398437,-0.25 -0.71875,-0.25 -0.261719,0 -0.492187,0.074219 -0.6875,0.21875 C 1.691406,-3.785156 1.535156,-3.601562 1.421875,-3.375 V 0 h -0.8125 v -4.734375 z m 0,0"
             id="path29" />
        </g>
      </g>
    </g>
    <g
       fill="#e4e2dd"
       fill-opacity="1"
       id="g35"
       transform="matrix(2.0844241,0,0,1.9701568,-202.0326,-169.80988)">
      <g
         transform="translate(133.63588,269.21917)"
         id="g34">
        <g
           id="g33">
          <path
             d="m 0.421875,-2.40625 c 0,-0.726562 0.171875,-1.3125 0.515625,-1.75 0.34375,-0.445312 0.789062,-0.671875 1.34375,-0.671875 0.5625,0 1.003906,0.195313 1.328125,0.578125 v -2.484375 h 0.8125 V 0 h -0.75 L 3.625,-0.515625 C 3.300781,-0.109375 2.851562,0.09375 2.28125,0.09375 c -0.554688,0 -1,-0.222656 -1.34375,-0.671875 C 0.59375,-1.035156 0.421875,-1.625 0.421875,-2.34375 Z M 1.21875,-2.3125 c 0,0.53125 0.109375,0.953125 0.328125,1.265625 0.226563,0.304687 0.539063,0.453125 0.9375,0.453125 0.507813,0 0.882813,-0.234375 1.125,-0.703125 V -3.46875 c -0.25,-0.445312 -0.625,-0.671875 -1.125,-0.671875 -0.398437,0 -0.710937,0.15625 -0.9375,0.46875 C 1.328125,-3.367188 1.21875,-2.914062 1.21875,-2.3125 Z m 0,0"
             id="path32" />
        </g>
      </g>
    </g>
    <g
       fill="#e4e2dd"
       fill-opacity="1"
       id="g38">
      <g
         transform="translate(139.36525,269.21917)"
         id="g37">
        <g
           id="g36" />
      </g>
    </g>
    <g
       fill="#e4e2dd"
       fill-opacity="1"
       id="g41"
       transform="matrix(2.0844241,0,0,1.9701568,-202.0326,-169.80988)">
      <g
         transform="translate(142.25752,269.21917)"
         id="g40">
        <g
           id="g39">
          <path
             d="M 5.140625,-5.6875 H 3.09375 V 0 H 2.265625 V -5.6875 H 0.21875 V -6.375 h 4.921875 z m 0,0"
             id="path38" />
        </g>
      </g>
    </g>
    <g
       fill="#e4e2dd"
       fill-opacity="1"
       id="g44"
       transform="matrix(2.0844241,0,0,1.9701568,-202.0326,-169.80988)">
      <g
         transform="translate(148.28023,269.21917)"
         id="g43">
        <g
           id="g42">
          <path
             d="M 2.90625,-4.015625 C 2.78125,-4.035156 2.644531,-4.046875 2.5,-4.046875 c -0.53125,0 -0.890625,0.230469 -1.078125,0.6875 V 0 h -0.8125 V -4.734375 H 1.40625 L 1.421875,-4.1875 c 0.257813,-0.425781 0.632813,-0.640625 1.125,-0.640625 0.15625,0 0.273437,0.023437 0.359375,0.0625 z m 0,0"
             id="path41" />
        </g>
      </g>
    </g>
    <g
       fill="#e4e2dd"
       fill-opacity="1"
       id="g47"
       transform="matrix(2.0844241,0,0,1.9701568,-202.0326,-169.80988)">
      <g
         transform="translate(151.98685,269.21917)"
         id="g46">
        <g
           id="g45">
          <path
             d="M 3.53125,0 C 3.488281,-0.09375 3.453125,-0.257812 3.421875,-0.5 c -0.375,0.398438 -0.824219,0.59375 -1.34375,0.59375 -0.46875,0 -0.855469,-0.1289062 -1.15625,-0.390625 -0.292969,-0.269531 -0.4375,-0.609375 -0.4375,-1.015625 0,-0.488281 0.1875,-0.867188 0.5625,-1.140625 C 1.421875,-2.734375 1.945312,-2.875 2.625,-2.875 H 3.40625 V -3.25 c 0,-0.28125 -0.085938,-0.503906 -0.25,-0.671875 -0.167969,-0.164063 -0.417969,-0.25 -0.75,-0.25 -0.292969,0 -0.539062,0.074219 -0.734375,0.21875 -0.1875,0.148437 -0.28125,0.324219 -0.28125,0.53125 h -0.8125 c 0,-0.238281 0.082031,-0.46875 0.25,-0.6875 C 0.992188,-4.328125 1.21875,-4.5 1.5,-4.625 c 0.289062,-0.132812 0.609375,-0.203125 0.953125,-0.203125 0.550781,0 0.976563,0.140625 1.28125,0.421875 0.3125,0.273438 0.472656,0.648438 0.484375,1.125 v 2.171875 c 0,0.4375 0.054688,0.789063 0.171875,1.046875 V 0 Z M 2.1875,-0.625 c 0.257812,0 0.503906,-0.0625 0.734375,-0.1875 C 3.148438,-0.945312 3.3125,-1.117188 3.40625,-1.328125 v -0.96875 h -0.625 c -1,0 -1.5,0.292969 -1.5,0.875 0,0.25 0.082031,0.449219 0.25,0.59375 C 1.707031,-0.691406 1.925781,-0.625 2.1875,-0.625 Z m 0,0"
             id="path44" />
        </g>
      </g>
    </g>
    <g
       fill="#e4e2dd"
       fill-opacity="1"
       id="g50"
       transform="matrix(2.0844241,0,0,1.9701568,-202.0326,-169.80988)">
      <g
         transform="translate(157.5367,269.21917)"
         id="g49">
        <g
           id="g48">
          <path
             d="m 1.375,-4.734375 0.03125,0.59375 c 0.363281,-0.457031 0.835938,-0.6875 1.421875,-0.6875 1,0 1.503906,0.570313 1.515625,1.703125 V 0 h -0.8125 v -3.140625 c 0,-0.332031 -0.078125,-0.582031 -0.234375,-0.75 -0.15625,-0.164063 -0.398437,-0.25 -0.71875,-0.25 -0.261719,0 -0.492187,0.074219 -0.6875,0.21875 C 1.691406,-3.785156 1.535156,-3.601562 1.421875,-3.375 V 0 h -0.8125 v -4.734375 z m 0,0"
             id="path47" />
        </g>
      </g>
    </g>
    <g
       fill="#e4e2dd"
       fill-opacity="1"
       id="g53"
       transform="matrix(2.0844241,0,0,1.9701568,-202.0326,-169.80988)">
      <g
         transform="translate(163.15661,269.21917)"
         id="g52">
        <g
           id="g51">
          <path
             d="m 3.375,-1.25 c 0,-0.21875 -0.085938,-0.390625 -0.25,-0.515625 -0.167969,-0.125 -0.460938,-0.226563 -0.875,-0.3125 C 1.84375,-2.171875 1.519531,-2.273438 1.28125,-2.390625 1.039062,-2.515625 0.863281,-2.660156 0.75,-2.828125 0.632812,-3.003906 0.578125,-3.207031 0.578125,-3.4375 c 0,-0.382812 0.160156,-0.710938 0.484375,-0.984375 0.332031,-0.269531 0.753906,-0.40625 1.265625,-0.40625 0.539063,0 0.976563,0.140625 1.3125,0.421875 0.332031,0.273438 0.5,0.625 0.5,1.0625 h -0.8125 c 0,-0.21875 -0.09375,-0.40625 -0.28125,-0.5625 -0.1875,-0.164062 -0.429687,-0.25 -0.71875,-0.25 -0.292969,0 -0.523437,0.0625 -0.6875,0.1875 -0.167969,0.125 -0.25,0.292969 -0.25,0.5 0,0.199219 0.078125,0.351562 0.234375,0.453125 0.15625,0.09375 0.429688,0.1875 0.828125,0.28125 0.40625,0.09375 0.734375,0.203125 0.984375,0.328125 0.25,0.125 0.4375,0.277344 0.5625,0.453125 0.125,0.179687 0.1875,0.390625 0.1875,0.640625 0,0.429688 -0.171875,0.773438 -0.515625,1.03125 -0.335937,0.25 -0.773437,0.375 -1.3125,0.375 -0.386719,0 -0.726563,-0.0703125 -1.015625,-0.203125 -0.292969,-0.132813 -0.523438,-0.320313 -0.6875,-0.5625 -0.15625,-0.238281 -0.234375,-0.5 -0.234375,-0.78125 H 1.21875 c 0.019531,0.273437 0.128906,0.484375 0.328125,0.640625 0.207031,0.15625 0.476563,0.234375 0.8125,0.234375 0.300781,0 0.546875,-0.0625 0.734375,-0.1875 C 3.28125,-0.890625 3.375,-1.050781 3.375,-1.25 Z m 0,0"
             id="path50" />
        </g>
      </g>
    </g>
    <g
       fill="#e4e2dd"
       fill-opacity="1"
       id="g56"
       transform="matrix(2.0844241,0,0,1.9701568,-202.0326,-169.80988)">
      <g
         transform="translate(168.45254,269.21917)"
         id="g55">
        <g
           id="g54">
          <path
             d="M 3.53125,0 C 3.488281,-0.09375 3.453125,-0.257812 3.421875,-0.5 c -0.375,0.398438 -0.824219,0.59375 -1.34375,0.59375 -0.46875,0 -0.855469,-0.1289062 -1.15625,-0.390625 -0.292969,-0.269531 -0.4375,-0.609375 -0.4375,-1.015625 0,-0.488281 0.1875,-0.867188 0.5625,-1.140625 C 1.421875,-2.734375 1.945312,-2.875 2.625,-2.875 H 3.40625 V -3.25 c 0,-0.28125 -0.085938,-0.503906 -0.25,-0.671875 -0.167969,-0.164063 -0.417969,-0.25 -0.75,-0.25 -0.292969,0 -0.539062,0.074219 -0.734375,0.21875 -0.1875,0.148437 -0.28125,0.324219 -0.28125,0.53125 h -0.8125 c 0,-0.238281 0.082031,-0.46875 0.25,-0.6875 C 0.992188,-4.328125 1.21875,-4.5 1.5,-4.625 c 0.289062,-0.132812 0.609375,-0.203125 0.953125,-0.203125 0.550781,0 0.976563,0.140625 1.28125,0.421875 0.3125,0.273438 0.472656,0.648438 0.484375,1.125 v 2.171875 c 0,0.4375 0.054688,0.789063 0.171875,1.046875 V 0 Z M 2.1875,-0.625 c 0.257812,0 0.503906,-0.0625 0.734375,-0.1875 C 3.148438,-0.945312 3.3125,-1.117188 3.40625,-1.328125 v -0.96875 h -0.625 c -1,0 -1.5,0.292969 -1.5,0.875 0,0.25 0.082031,0.449219 0.25,0.59375 C 1.707031,-0.691406 1.925781,-0.625 2.1875,-0.625 Z m 0,0"
             id="path53" />
        </g>
      </g>
    </g>
    <g
       fill="#e4e2dd"
       fill-opacity="1"
       id="g59"
       transform="matrix(2.0844241,0,0,1.9701568,-202.0326,-169.80988)">
      <g
         transform="translate(174.00239,269.21917)"
         id="g58">
        <g
           id="g57">
          <path
             d="m 2.515625,-0.578125 c 0.289063,0 0.539063,-0.082031 0.75,-0.25 C 3.484375,-1.003906 3.601562,-1.226562 3.625,-1.5 h 0.765625 c -0.011719,0.273438 -0.105469,0.53125 -0.28125,0.78125 -0.167969,0.25 -0.398437,0.449219 -0.6875,0.59375 -0.28125,0.1445312 -0.585937,0.21875 -0.90625,0.21875 -0.648437,0 -1.164063,-0.210938 -1.546875,-0.640625 -0.375,-0.4375 -0.5625,-1.03125 -0.5625,-1.78125 V -2.46875 c 0,-0.457031 0.082031,-0.863281 0.25,-1.21875 0.164062,-0.363281 0.40625,-0.644531 0.71875,-0.84375 0.320312,-0.195312 0.703125,-0.296875 1.140625,-0.296875 0.53125,0 0.96875,0.164063 1.3125,0.484375 0.351563,0.3125 0.539063,0.726562 0.5625,1.234375 H 3.625 C 3.601562,-3.410156 3.488281,-3.660156 3.28125,-3.859375 3.070312,-4.054688 2.816406,-4.15625 2.515625,-4.15625 c -0.417969,0 -0.742187,0.152344 -0.96875,0.453125 C 1.328125,-3.410156 1.21875,-2.988281 1.21875,-2.4375 v 0.15625 c 0,0.554688 0.109375,0.976562 0.328125,1.265625 0.226563,0.292969 0.550781,0.4375 0.96875,0.4375 z m 0,0"
             id="path56" />
        </g>
      </g>
    </g>
    <g
       fill="#e4e2dd"
       fill-opacity="1"
       id="g62"
       transform="matrix(2.0844241,0,0,1.9701568,-202.0326,-169.80988)">
      <g
         transform="translate(179.36837,269.21917)"
         id="g61">
        <g
           id="g60">
          <path
             d="m 1.71875,-5.890625 v 1.15625 h 0.875 v 0.625 h -0.875 v 2.9375 c 0,0.1875 0.035156,0.328125 0.109375,0.421875 0.082031,0.09375 0.21875,0.140625 0.40625,0.140625 0.09375,0 0.222656,-0.015625 0.390625,-0.046875 V 0 C 2.40625,0.0625 2.195312,0.09375 2,0.09375 c -0.367188,0 -0.640625,-0.109375 -0.828125,-0.328125 -0.179687,-0.21875 -0.265625,-0.53125 -0.265625,-0.9375 v -2.9375 H 0.046875 v -0.625 H 0.90625 v -1.15625 z m 0,0"
             id="path59" />
        </g>
      </g>
    </g>
    <g
       fill="#e4e2dd"
       fill-opacity="1"
       id="g65"
       transform="matrix(2.0844241,0,0,1.9701568,-202.0326,-169.80988)">
      <g
         transform="translate(182.96991,269.21917)"
         id="g64">
        <g
           id="g63">
          <path
             d="M 1.5,0 H 0.6875 V -4.734375 H 1.5 Z M 0.625,-6 c 0,-0.125 0.035156,-0.234375 0.109375,-0.328125 0.082031,-0.09375 0.203125,-0.140625 0.359375,-0.140625 0.15625,0 0.273438,0.046875 0.359375,0.140625 0.082031,0.09375 0.125,0.210937 0.125,0.34375 0,0.125 -0.042969,0.234375 -0.125,0.328125 -0.085937,0.085938 -0.203125,0.125 -0.359375,0.125 -0.15625,0 -0.277344,-0.039062 -0.359375,-0.125 C 0.660156,-5.75 0.625,-5.863281 0.625,-6 Z m 0,0"
             id="path62" />
        </g>
      </g>
    </g>
    <g
       fill="#e4e2dd"
       fill-opacity="1"
       id="g68"
       transform="matrix(2.0844241,0,0,1.9701568,-202.0326,-169.80988)">
      <g
         transform="translate(185.81839,269.21917)"
         id="g67">
        <g
           id="g66">
          <path
             d="m 0.40625,-2.40625 c 0,-0.46875 0.085938,-0.882812 0.265625,-1.25 0.1875,-0.375 0.441406,-0.660156 0.765625,-0.859375 0.320312,-0.207031 0.691406,-0.3125 1.109375,-0.3125 0.644531,0 1.164063,0.226563 1.5625,0.671875 0.40625,0.449219 0.609375,1.042969 0.609375,1.78125 v 0.0625 c 0,0.460938 -0.089844,0.871094 -0.265625,1.234375 C 4.273438,-0.710938 4.019531,-0.425781 3.6875,-0.21875 3.363281,-0.0078125 2.988281,0.09375 2.5625,0.09375 1.914062,0.09375 1.394531,-0.128906 1,-0.578125 0.601562,-1.023438 0.40625,-1.617188 0.40625,-2.359375 Z m 0.8125,0.09375 c 0,0.523438 0.117188,0.945312 0.359375,1.265625 0.238281,0.3125 0.566406,0.46875 0.984375,0.46875 0.40625,0 0.726562,-0.160156 0.96875,-0.484375 0.25,-0.320312 0.375,-0.769531 0.375,-1.34375 0,-0.519531 -0.125,-0.941406 -0.375,-1.265625 -0.25,-0.320313 -0.578125,-0.484375 -0.984375,-0.484375 -0.398437,0 -0.71875,0.164062 -0.96875,0.484375 C 1.335938,-3.359375 1.21875,-2.90625 1.21875,-2.3125 Z m 0,0"
             id="path65" />
        </g>
      </g>
    </g>
    <g
       fill="#e4e2dd"
       fill-opacity="1"
       id="g71"
       transform="matrix(2.0844241,0,0,1.9701568,-202.0326,-169.80988)">
      <g
         transform="translate(191.60468,269.21917)"
         id="g70">
        <g
           id="g69">
          <path
             d="m 1.375,-4.734375 0.03125,0.59375 c 0.363281,-0.457031 0.835938,-0.6875 1.421875,-0.6875 1,0 1.503906,0.570313 1.515625,1.703125 V 0 h -0.8125 v -3.140625 c 0,-0.332031 -0.078125,-0.582031 -0.234375,-0.75 -0.15625,-0.164063 -0.398437,-0.25 -0.71875,-0.25 -0.261719,0 -0.492187,0.074219 -0.6875,0.21875 C 1.691406,-3.785156 1.535156,-3.601562 1.421875,-3.375 V 0 h -0.8125 v -4.734375 z m 0,0"
             id="path68" />
        </g>
      </g>
    </g>
    <g
       fill="#e4e2dd"
       fill-opacity="1"
       id="g74"
       transform="matrix(2.0844241,0,0,1.9701568,-202.0326,-169.80988)">
      <g
         transform="translate(197.22459,269.21917)"
         id="g73">
        <g
           id="g72">
          <path
             d="m 3.375,-1.25 c 0,-0.21875 -0.085938,-0.390625 -0.25,-0.515625 -0.167969,-0.125 -0.460938,-0.226563 -0.875,-0.3125 C 1.84375,-2.171875 1.519531,-2.273438 1.28125,-2.390625 1.039062,-2.515625 0.863281,-2.660156 0.75,-2.828125 0.632812,-3.003906 0.578125,-3.207031 0.578125,-3.4375 c 0,-0.382812 0.160156,-0.710938 0.484375,-0.984375 0.332031,-0.269531 0.753906,-0.40625 1.265625,-0.40625 0.539063,0 0.976563,0.140625 1.3125,0.421875 0.332031,0.273438 0.5,0.625 0.5,1.0625 h -0.8125 c 0,-0.21875 -0.09375,-0.40625 -0.28125,-0.5625 -0.1875,-0.164062 -0.429687,-0.25 -0.71875,-0.25 -0.292969,0 -0.523437,0.0625 -0.6875,0.1875 -0.167969,0.125 -0.25,0.292969 -0.25,0.5 0,0.199219 0.078125,0.351562 0.234375,0.453125 0.15625,0.09375 0.429688,0.1875 0.828125,0.28125 0.40625,0.09375 0.734375,0.203125 0.984375,0.328125 0.25,0.125 0.4375,0.277344 0.5625,0.453125 0.125,0.179687 0.1875,0.390625 0.1875,0.640625 0,0.429688 -0.171875,0.773438 -0.515625,1.03125 -0.335937,0.25 -0.773437,0.375 -1.3125,0.375 -0.386719,0 -0.726563,-0.0703125 -1.015625,-0.203125 -0.292969,-0.132813 -0.523438,-0.320313 -0.6875,-0.5625 -0.15625,-0.238281 -0.234375,-0.5 -0.234375,-0.78125 H 1.21875 c 0.019531,0.273437 0.128906,0.484375 0.328125,0.640625 0.207031,0.15625 0.476563,0.234375 0.8125,0.234375 0.300781,0 0.546875,-0.0625 0.734375,-0.1875 C 3.28125,-0.890625 3.375,-1.050781 3.375,-1.25 Z m 0,0"
             id="path71" />
        </g>
      </g>
    </g>
    <g
       fill="#e4e2dd"
       fill-opacity="1"
       id="g77">
      <g
         transform="translate(202.52051,269.21917)"
         id="g76">
        <g
           id="g75" />
      </g>
    </g>
    <g
       fill="#e4e2dd"
       fill-opacity="1"
       id="g80"
       transform="matrix(2.0844241,0,0,1.9701568,-202.0326,-169.80988)">
      <g
         transform="translate(205.41277,269.21917)"
         id="g79">
        <g
           id="g78">
          <path
             d="m 0.734375,0 v -6.375 h 2.09375 c 0.6875,0 1.203125,0.148438 1.546875,0.4375 0.351562,0.28125 0.53125,0.703125 0.53125,1.265625 0,0.292969 -0.085938,0.554687 -0.25,0.78125 -0.167969,0.230469 -0.398438,0.40625 -0.6875,0.53125 0.34375,0.105469 0.613281,0.292969 0.8125,0.5625 0.195312,0.261719 0.296875,0.578125 0.296875,0.953125 0,0.574219 -0.1875,1.027344 -0.5625,1.359375 C 4.148438,-0.160156 3.628906,0 2.953125,0 Z m 0.84375,-2.984375 V -0.6875 H 2.96875 c 0.394531,0 0.703125,-0.097656 0.921875,-0.296875 0.226563,-0.207031 0.34375,-0.488281 0.34375,-0.84375 0,-0.769531 -0.417969,-1.15625 -1.25,-1.15625 z m 0,-0.671875 H 2.84375 c 0.375,0 0.671875,-0.085938 0.890625,-0.265625 0.21875,-0.1875 0.328125,-0.441406 0.328125,-0.765625 0,-0.34375 -0.105469,-0.59375 -0.3125,-0.75 -0.199219,-0.164062 -0.507812,-0.25 -0.921875,-0.25 h -1.25 z m 0,0"
             id="path77" />
        </g>
      </g>
    </g>
    <g
       fill="#e4e2dd"
       fill-opacity="1"
       id="g83"
       transform="matrix(2.0844241,0,0,1.9701568,-202.0326,-169.80988)">
      <g
         transform="translate(211.66752,269.21917)"
         id="g82">
        <g
           id="g81">
          <path
             d="m 3.53125,-0.46875 c -0.3125,0.375 -0.773438,0.5625 -1.375,0.5625 -0.511719,0 -0.902344,-0.1445312 -1.171875,-0.4375 C 0.722656,-0.644531 0.59375,-1.082031 0.59375,-1.65625 v -3.078125 h 0.8125 v 3.0625 c 0,0.71875 0.289062,1.078125 0.875,1.078125 0.613281,0 1.023438,-0.234375 1.234375,-0.703125 v -3.4375 h 0.8125 V 0 H 3.5625 Z m 0,0"
             id="path80" />
        </g>
      </g>
    </g>
    <g
       fill="#e4e2dd"
       fill-opacity="1"
       id="g86"
       transform="matrix(2.0844241,0,0,1.9701568,-202.0326,-169.80988)">
      <g
         transform="translate(217.28305,269.21917)"
         id="g85">
        <g
           id="g84">
          <path
             d="M 1.5,0 H 0.6875 V -4.734375 H 1.5 Z M 0.625,-6 c 0,-0.125 0.035156,-0.234375 0.109375,-0.328125 0.082031,-0.09375 0.203125,-0.140625 0.359375,-0.140625 0.15625,0 0.273438,0.046875 0.359375,0.140625 0.082031,0.09375 0.125,0.210937 0.125,0.34375 0,0.125 -0.042969,0.234375 -0.125,0.328125 -0.085937,0.085938 -0.203125,0.125 -0.359375,0.125 -0.15625,0 -0.277344,-0.039062 -0.359375,-0.125 C 0.660156,-5.75 0.625,-5.863281 0.625,-6 Z m 0,0"
             id="path83" />
        </g>
      </g>
    </g>
    <g
       fill="#e4e2dd"
       fill-opacity="1"
       id="g89"
       transform="matrix(2.0844241,0,0,1.9701568,-202.0326,-169.80988)">
      <g
         transform="translate(220.13153,269.21917)"
         id="g88">
        <g
           id="g87">
          <path
             d="M 1.5,0 H 0.6875 V -6.734375 H 1.5 Z m 0,0"
             id="path86" />
        </g>
      </g>
    </g>
    <g
       id="g120"
       transform="matrix(2.0844241,0,0,1.9701568,-202.0326,-169.80988)">
      <path
         fill="#db4a2b"
         d="m 106.17969,151.08984 c -0.47266,11.16797 5.82031,21.58203 13.77344,29.01172 8.23437,7.66797 18.69531,12.59375 29.91406,13.58594 26.88672,2.36719 48.51562,-18.17578 63.14062,-38.14844 9.60938,-13.11328 18.36719,-26.83984 27.45313,-40.32812 -2.9336,-0.37891 -5.82032,-0.75781 -8.75391,-1.13672 1.70313,11.55078 5.39453,22.71875 10.83984,33.03906 4.39844,8.37891 11.97266,20.63672 23.23829,17.79688 2.60546,-0.66407 3.5039,-4.92188 0.80468,-6.10547 -8.09375,-3.59766 -12.63672,-10.88672 -16.51953,-18.50782 -4.58984,-8.99218 -7.57422,-18.79296 -9.08594,-28.77734 -0.66406,-4.40234 -6.72265,-4.21484 -8.75781,-1.13672 -7.42969,11.17188 -14.76953,22.4336 -22.33984,33.5586 -6.86328,10.03515 -14.25,19.8789 -23.66797,27.6914 -8.37891,7.00391 -18.98047,12.44531 -30.00781,13.25 -9.70313,0.71094 -19.125,-2.41406 -26.88672,-8.1875 -8.80469,-6.53125 -14.05859,-16.23437 -17.65234,-26.3164 -1.04297,-2.98047 -5.35157,-2.55469 -5.49219,0.71093 z m 0,0"
         fill-opacity="1"
         fill-rule="nonzero"
         id="path2" />
      <g
         fill="#e4e2dd"
         fill-opacity="1"
         id="g5">
        <g
           transform="translate(117.00388,167.53949)"
           id="g4">
          <g
             id="g3">
            <path
               d="m 38.9375,-72.703125 c 4.851562,0 9.4375,0.980469 13.75,2.9375 4.3125,1.949219 8.066406,4.59375 11.265625,7.9375 3.207031,3.335937 5.753906,7.246094 7.640625,11.734375 1.882812,4.480469 2.828125,9.210938 2.828125,14.1875 0,5.0625 -0.945313,9.820312 -2.828125,14.265625 -1.886719,4.449219 -4.449219,8.34375 -7.6875,11.6875 -3.230469,3.335937 -7.007812,5.980469 -11.328125,7.9375 -4.3125,1.9492188 -8.898437,2.921875 -13.75,2.921875 -4.855469,0 -9.4375,-0.9726562 -13.75,-2.921875 -4.3125,-1.957031 -8.074219,-4.601563 -11.28125,-7.9375 -3.199219,-3.34375 -5.726563,-7.238281 -7.578125,-11.6875 C 4.363281,-26.085938 3.4375,-30.84375 3.4375,-35.90625 c 0,-4.976562 0.925781,-9.707031 2.78125,-14.1875 1.851562,-4.488281 4.394531,-8.398438 7.625,-11.734375 3.238281,-3.34375 7.015625,-5.988281 11.328125,-7.9375 4.320313,-1.957031 8.910156,-2.9375 13.765625,-2.9375 z m 0,63.609375 c 3.4375,0 6.65625,-0.691406 9.65625,-2.078125 3,-1.382813 5.609375,-3.289063 7.828125,-5.71875 2.226563,-2.425781 3.984375,-5.273437 5.265625,-8.546875 1.28125,-3.269531 1.921875,-6.757812 1.921875,-10.46875 0,-3.707031 -0.640625,-7.175781 -1.921875,-10.40625 -1.28125,-3.238281 -3.039062,-6.070312 -5.265625,-8.5 -2.21875,-2.425781 -4.828125,-4.328125 -7.828125,-5.703125 -3,-1.382813 -6.21875,-2.078125 -9.65625,-2.078125 -3.4375,0 -6.65625,0.695312 -9.65625,2.078125 -3,1.375 -5.617188,3.277344 -7.84375,5.703125 -2.230469,2.429688 -4,5.261719 -5.3125,8.5 -1.3125,3.230469 -1.96875,6.699219 -1.96875,10.40625 0,3.710938 0.65625,7.199219 1.96875,10.46875 1.3125,3.273438 3.082031,6.121094 5.3125,8.546875 2.226562,2.429687 4.84375,4.335937 7.84375,5.71875 3,1.386719 6.21875,2.078125 9.65625,2.078125 z m 0,0"
               id="path3" />
          </g>
        </g>
      </g>
      <g
         fill="#e4e2dd"
         fill-opacity="1"
         id="g8">
        <g
           transform="translate(142.50057,245.15)"
           id="g7">
          <g
             id="g6">
            <path
               d="M 11.921875,0.421875 C 10.472656,0.421875 9.113281,0.0820312 7.84375,-0.59375 6.570312,-1.28125 5.453125,-2.253906 4.484375,-3.515625 3.554688,-4.742188 2.828125,-6.148438 2.296875,-7.734375 1.765625,-9.328125 1.5,-11.03125 1.5,-12.84375 v -3.640625 c 0,-2.007813 0.25,-3.835937 0.75,-5.484375 0.507812,-1.644531 1.210938,-3.066406 2.109375,-4.265625 0.882813,-1.226563 1.972656,-2.171875 3.265625,-2.828125 1.300781,-0.65625 2.734375,-0.984375 4.296875,-0.984375 1.539063,0 2.957031,0.324219 4.25,0.96875 1.300781,0.636719 2.394531,1.570313 3.28125,2.796875 0.894531,1.199219 1.609375,2.632812 2.140625,4.296875 0.53125,1.65625 0.796875,3.492187 0.796875,5.5 v 3.640625 c 0,1.929688 -0.277344,3.695312 -0.828125,5.296875 -0.542969,1.605469 -1.273438,3.007813 -2.1875,4.203125 -0.949219,1.199219 -2.058594,2.125 -3.328125,2.78125 -1.273437,0.65625 -2.648437,0.984375 -4.125,0.984375 z M 5.78125,-12.84375 c 0,1.367188 0.164062,2.636719 0.5,3.8125 0.332031,1.167969 0.816406,2.167969 1.453125,3 0.5625,0.730469 1.195313,1.296875 1.90625,1.703125 0.71875,0.40625 1.476563,0.609375 2.28125,0.609375 0.925781,0 1.765625,-0.222656 2.515625,-0.671875 0.75,-0.445313 1.394531,-1.066406 1.9375,-1.859375 0.550781,-0.800781 0.976562,-1.757812 1.28125,-2.875 0.3125,-1.113281 0.46875,-2.351562 0.46875,-3.71875 v -3.640625 c 0,-3.175781 -0.648438,-5.617187 -1.9375,-7.328125 -1.085938,-1.394531 -2.507812,-2.09375 -4.265625,-2.09375 -1.78125,0 -3.21875,0.714844 -4.3125,2.140625 -1.21875,1.648437 -1.828125,4.074219 -1.828125,7.28125 z m 0,0"
               id="path5" />
          </g>
        </g>
      </g>
      <g
         fill="#e4e2dd"
         fill-opacity="1"
         id="g11">
        <g
           transform="translate(166.76188,245.15)"
           id="g10">
          <g
             id="g9">
            <path
               d="M 21,0 H 16.0625 L 10.921875,-7.03125 5.734375,0 h -4.9375 l 7.65625,-10.375 -7.109375,-9.671875 h 4.9375 l 4.640625,6.28125 4.609375,-6.28125 h 4.9375 L 13.390625,-10.375 Z m 0,0"
               id="path8" />
          </g>
        </g>
      </g>
      <g
         fill="#e4e2dd"
         fill-opacity="1"
         id="g14">
        <g
           transform="translate(188.42973,245.15)"
           id="g13">
          <g
             id="g12">
            <path
               d="M 2.46875,0 V -29.671875 H 6.859375 V -4.0625 H 20.59375 V 0 Z m 0,0"
               id="path11" />
          </g>
        </g>
      </g>
      <g
         fill="#e4e2dd"
         fill-opacity="1"
         id="g17">
        <g
           transform="translate(209.88844,245.15)"
           id="g16">
          <g
             id="g15">
            <path
               d="m 13.8125,-19.421875 c 1.3125,0.117187 2.429688,0.453125 3.359375,1.015625 0.9375,0.554688 1.710937,1.257812 2.328125,2.109375 0.613281,0.855469 1.054688,1.820313 1.328125,2.890625 0.28125,1.074219 0.421875,2.167969 0.421875,3.28125 0,1.398438 -0.273438,2.730469 -0.8125,4 -0.542969,1.273438 -1.277344,2.386719 -2.203125,3.34375 -0.917969,0.960938 -1.992187,1.734375 -3.21875,2.328125 -1.21875,0.582031 -2.527344,0.875 -3.921875,0.875 -1.148438,0 -2.234375,-0.1875 -3.265625,-0.5625 C 6.796875,-0.523438 5.859375,-1.039062 5.015625,-1.6875 4.179688,-2.34375 3.441406,-3.117188 2.796875,-4.015625 2.160156,-4.910156 1.675781,-5.859375 1.34375,-6.859375 l 3.84375,-1.46875 c 0.195312,0.648437 0.488281,1.257813 0.875,1.828125 0.394531,0.5625 0.863281,1.058594 1.40625,1.484375 0.539062,0.417969 1.140625,0.742187 1.796875,0.96875 0.65625,0.21875 1.347656,0.3125 2.078125,0.28125 0.78125,-0.03125 1.519531,-0.21875 2.21875,-0.5625 0.695312,-0.351563 1.300781,-0.8125 1.8125,-1.375 0.519531,-0.570313 0.9375,-1.210937 1.25,-1.921875 0.320312,-0.71875 0.5,-1.484375 0.53125,-2.296875 0.03125,-0.832031 -0.105469,-1.625 -0.40625,-2.375 -0.292969,-0.757813 -0.710938,-1.421875 -1.25,-1.984375 -0.542969,-0.570312 -1.179688,-1.03125 -1.90625,-1.375 -0.71875,-0.351562 -1.5,-0.546875 -2.34375,-0.578125 -0.273438,0 -0.546875,0.03125 -0.828125,0.09375 -0.28125,0.05469 -0.5625,0.121094 -0.84375,0.203125 l -1.625,-2.09375 5.1875,-7.703125 H 4.1875 v -3.9375 h 14.59375 v 2.8125 c -0.949219,1.398437 -1.78125,2.636719 -2.5,3.71875 -0.3125,0.480469 -0.625,0.9375 -0.9375,1.375 -0.304688,0.429687 -0.5625,0.824219 -0.78125,1.1875 -0.21875,0.355469 -0.402344,0.636719 -0.546875,0.84375 -0.136719,0.210937 -0.203125,0.3125 -0.203125,0.3125 z m 0,0"
               id="path14" />
          </g>
        </g>
      </g>
      <g
         fill="#e4e2dd"
         fill-opacity="1"
         id="g92">
        <g
           transform="translate(222.98,269.21917)"
           id="g91">
          <g
             id="g90">
            <path
               d="m 0.421875,-2.40625 c 0,-0.726562 0.171875,-1.3125 0.515625,-1.75 0.34375,-0.445312 0.789062,-0.671875 1.34375,-0.671875 0.5625,0 1.003906,0.195313 1.328125,0.578125 v -2.484375 h 0.8125 V 0 h -0.75 L 3.625,-0.515625 C 3.300781,-0.109375 2.851562,0.09375 2.28125,0.09375 c -0.554688,0 -1,-0.222656 -1.34375,-0.671875 C 0.59375,-1.035156 0.421875,-1.625 0.421875,-2.34375 Z M 1.21875,-2.3125 c 0,0.53125 0.109375,0.953125 0.328125,1.265625 0.226563,0.304687 0.539063,0.453125 0.9375,0.453125 0.507813,0 0.882813,-0.234375 1.125,-0.703125 V -3.46875 c -0.25,-0.445312 -0.625,-0.671875 -1.125,-0.671875 -0.398437,0 -0.710937,0.15625 -0.9375,0.46875 C 1.328125,-3.367188 1.21875,-2.914062 1.21875,-2.3125 Z m 0,0"
               id="path89" />
          </g>
        </g>
      </g>
    </g>
    <g
       fill="#e4e2dd"
       fill-opacity="1"
       id="g95"
       transform="matrix(2.0844241,0,0,1.9701568,-202.0326,-169.80988)">
      <g
         transform="translate(228.70937,269.21917)"
         id="g94">
        <g
           id="g93">
          <path
             d="M 1.5,0 H 0.6875 V -4.734375 H 1.5 Z M 0.625,-6 c 0,-0.125 0.035156,-0.234375 0.109375,-0.328125 0.082031,-0.09375 0.203125,-0.140625 0.359375,-0.140625 0.15625,0 0.273438,0.046875 0.359375,0.140625 0.082031,0.09375 0.125,0.210937 0.125,0.34375 0,0.125 -0.042969,0.234375 -0.125,0.328125 -0.085937,0.085938 -0.203125,0.125 -0.359375,0.125 -0.15625,0 -0.277344,-0.039062 -0.359375,-0.125 C 0.660156,-5.75 0.625,-5.863281 0.625,-6 Z m 0,0"
             id="path92" />
        </g>
      </g>
    </g>
    <g
       fill="#e4e2dd"
       fill-opacity="1"
       id="g98"
       transform="matrix(2.0844241,0,0,1.9701568,-202.0326,-169.80988)">
      <g
         transform="translate(231.55784,269.21917)"
         id="g97">
        <g
           id="g96">
          <path
             d="m 1.375,-4.734375 0.03125,0.59375 c 0.363281,-0.457031 0.835938,-0.6875 1.421875,-0.6875 1,0 1.503906,0.570313 1.515625,1.703125 V 0 h -0.8125 v -3.140625 c 0,-0.332031 -0.078125,-0.582031 -0.234375,-0.75 -0.15625,-0.164063 -0.398437,-0.25 -0.71875,-0.25 -0.261719,0 -0.492187,0.074219 -0.6875,0.21875 C 1.691406,-3.785156 1.535156,-3.601562 1.421875,-3.375 V 0 h -0.8125 v -4.734375 z m 0,0"
             id="path95" />
        </g>
      </g>
    </g>
    <g
       fill="#e4e2dd"
       fill-opacity="1"
       id="g101"
       transform="matrix(2.0844241,0,0,1.9701568,-202.0326,-169.80988)">
      <g
         transform="translate(237.17775,269.21917)"
         id="g100">
        <g
           id="g99">
          <path
             d="m 0.421875,-2.40625 c 0,-0.738281 0.164063,-1.328125 0.5,-1.765625 0.34375,-0.4375 0.800781,-0.65625 1.375,-0.65625 0.570313,0 1.019531,0.203125 1.34375,0.609375 L 3.6875,-4.734375 h 0.734375 v 4.625 c 0,0.613281 -0.183594,1.09375 -0.546875,1.4375 -0.367188,0.351563 -0.855469,0.53125 -1.46875,0.53125 -0.335938,0 -0.667969,-0.074219 -1,-0.21875 -0.324219,-0.148437 -0.574219,-0.34375 -0.75,-0.59375 L 1.078125,0.5625 c 0.351563,0.425781 0.78125,0.640625 1.28125,0.640625 0.394531,0 0.703125,-0.117187 0.921875,-0.34375 C 3.5,0.640625 3.609375,0.332031 3.609375,-0.0625 v -0.40625 c -0.324219,0.375 -0.765625,0.5625 -1.328125,0.5625 -0.554688,0 -1,-0.222656 -1.34375,-0.671875 C 0.59375,-1.023438 0.421875,-1.632812 0.421875,-2.40625 Z m 0.8125,0.09375 c 0,0.53125 0.109375,0.953125 0.328125,1.265625 0.21875,0.304687 0.523438,0.453125 0.921875,0.453125 0.507813,0 0.882813,-0.234375 1.125,-0.703125 v -2.15625 c -0.25,-0.457031 -0.625,-0.6875 -1.125,-0.6875 -0.386719,0 -0.695313,0.15625 -0.921875,0.46875 -0.21875,0.304687 -0.328125,0.757813 -0.328125,1.359375 z m 0,0"
             id="path98" />
        </g>
      </g>
    </g>
    <g
       fill="#e4e2dd"
       fill-opacity="1"
       id="g104">
      <g
         transform="translate(242.88084,269.21917)"
         id="g103">
        <g
           id="g102" />
      </g>
    </g>
    <g
       fill="#e4e2dd"
       fill-opacity="1"
       id="g107"
       transform="matrix(2.0844241,0,0,1.9701568,-202.0326,-169.80988)">
      <g
         transform="translate(245.7731,269.21917)"
         id="g106">
        <g
           id="g105">
          <path
             d="M 5.140625,-5.6875 H 3.09375 V 0 H 2.265625 V -5.6875 H 0.21875 V -6.375 h 4.921875 z m 0,0"
             id="path104" />
        </g>
      </g>
    </g>
    <g
       fill="#e4e2dd"
       fill-opacity="1"
       id="g110"
       transform="matrix(2.0844241,0,0,1.9701568,-202.0326,-169.80988)">
      <g
         transform="translate(251.7958,269.21917)"
         id="g109">
        <g
           id="g108">
          <path
             d="M 2.90625,-4.015625 C 2.78125,-4.035156 2.644531,-4.046875 2.5,-4.046875 c -0.53125,0 -0.890625,0.230469 -1.078125,0.6875 V 0 h -0.8125 V -4.734375 H 1.40625 L 1.421875,-4.1875 c 0.257813,-0.425781 0.632813,-0.640625 1.125,-0.640625 0.15625,0 0.273437,0.023437 0.359375,0.0625 z m 0,0"
             id="path107" />
        </g>
      </g>
    </g>
    <g
       fill="#e4e2dd"
       fill-opacity="1"
       id="g113"
       transform="matrix(2.0844241,0,0,1.9701568,-202.0326,-169.80988)">
      <g
         transform="translate(255.50242,269.21917)"
         id="g112">
        <g
           id="g111">
          <path
             d="m 3.53125,-0.46875 c -0.3125,0.375 -0.773438,0.5625 -1.375,0.5625 -0.511719,0 -0.902344,-0.1445312 -1.171875,-0.4375 C 0.722656,-0.644531 0.59375,-1.082031 0.59375,-1.65625 v -3.078125 h 0.8125 v 3.0625 c 0,0.71875 0.289062,1.078125 0.875,1.078125 0.613281,0 1.023438,-0.234375 1.234375,-0.703125 v -3.4375 h 0.8125 V 0 H 3.5625 Z m 0,0"
             id="path110" />
        </g>
      </g>
    </g>
    <g
       fill="#e4e2dd"
       fill-opacity="1"
       id="g116"
       transform="matrix(2.0844241,0,0,1.9701568,-202.0326,-169.80988)">
      <g
         transform="translate(261.11795,269.21917)"
         id="g115">
        <g
           id="g114">
          <path
             d="m 3.375,-1.25 c 0,-0.21875 -0.085938,-0.390625 -0.25,-0.515625 -0.167969,-0.125 -0.460938,-0.226563 -0.875,-0.3125 C 1.84375,-2.171875 1.519531,-2.273438 1.28125,-2.390625 1.039062,-2.515625 0.863281,-2.660156 0.75,-2.828125 0.632812,-3.003906 0.578125,-3.207031 0.578125,-3.4375 c 0,-0.382812 0.160156,-0.710938 0.484375,-0.984375 0.332031,-0.269531 0.753906,-0.40625 1.265625,-0.40625 0.539063,0 0.976563,0.140625 1.3125,0.421875 0.332031,0.273438 0.5,0.625 0.5,1.0625 h -0.8125 c 0,-0.21875 -0.09375,-0.40625 -0.28125,-0.5625 -0.1875,-0.164062 -0.429687,-0.25 -0.71875,-0.25 -0.292969,0 -0.523437,0.0625 -0.6875,0.1875 -0.167969,0.125 -0.25,0.292969 -0.25,0.5 0,0.199219 0.078125,0.351562 0.234375,0.453125 0.15625,0.09375 0.429688,0.1875 0.828125,0.28125 0.40625,0.09375 0.734375,0.203125 0.984375,0.328125 0.25,0.125 0.4375,0.277344 0.5625,0.453125 0.125,0.179687 0.1875,0.390625 0.1875,0.640625 0,0.429688 -0.171875,0.773438 -0.515625,1.03125 -0.335937,0.25 -0.773437,0.375 -1.3125,0.375 -0.386719,0 -0.726563,-0.0703125 -1.015625,-0.203125 -0.292969,-0.132813 -0.523438,-0.320313 -0.6875,-0.5625 -0.15625,-0.238281 -0.234375,-0.5 -0.234375,-0.78125 H 1.21875 c 0.019531,0.273437 0.128906,0.484375 0.328125,0.640625 0.207031,0.15625 0.476563,0.234375 0.8125,0.234375 0.300781,0 0.546875,-0.0625 0.734375,-0.1875 C 3.28125,-0.890625 3.375,-1.050781 3.375,-1.25 Z m 0,0"
             id="path113" />
        </g>
      </g>
    </g>
    <g
       fill="#e4e2dd"
       fill-opacity="1"
       id="g119"
       transform="matrix(2.0844241,0,0,1.9701568,-202.0326,-169.80988)">
      <g
         transform="translate(266.41386,269.21917)"
         id="g118">
        <g
           id="g117">
          <path
             d="m 1.71875,-5.890625 v 1.15625 h 0.875 v 0.625 h -0.875 v 2.9375 c 0,0.1875 0.035156,0.328125 0.109375,0.421875 0.082031,0.09375 0.21875,0.140625 0.40625,0.140625 0.09375,0 0.222656,-0.015625 0.390625,-0.046875 V 0 C 2.40625,0.0625 2.195312,0.09375 2,0.09375 c -0.367188,0 -0.640625,-0.109375 -0.828125,-0.328125 -0.179687,-0.21875 -0.265625,-0.53125 -0.265625,-0.9375 v -2.9375 H 0.046875 v -0.625 H 0.90625 v -1.15625 z m 0,0"
             id="path116" />
        </g>
      </g>
    </g>
  </g>
</svg>
